<svg height="auto" viewBox="0 0 2000 1000" xmlns="http://www.w3.org/2000/svg"><path d="M0 997.333c21-5.898 63-10.888 105-29.493 42-18.605 63-43.592 105-63.53 42-19.939 63-15.52 105-36.163 42-20.641 63-49.76 105-67.046 42-17.287 63-14.667 105-19.385 42-4.718 63 6.616 105-4.204s63-22.101 105-49.897c42-27.795 63-75.628 105-89.08 42-13.453 63 44.898 105 21.82 42-23.08 63-96.292 105-137.217 42-40.925 63-61.937 105-67.41 42-5.472 63 11.75 105 40.046 42 28.298 63 99.994 105 101.44 42 1.447 63-42.021 105-94.206 42-52.186 63-157.077 105-166.72s63 95.913 105 118.505 63 33.922 105-5.545c42-39.466 63-148.81 105-191.787 42-42.977 84-18.477 105-23.096l5 765.635H0Z" fill="#444cf71a"/><path d="M0 997.333c21-5.898 63-10.888 105-29.493 42-18.605 63-43.592 105-63.53 42-19.939 63-15.52 105-36.163 42-20.641 63-49.76 105-67.046 42-17.287 63-14.667 105-19.385 42-4.718 63 6.616 105-4.204s63-22.101 105-49.897c42-27.795 63-75.628 105-89.08 42-13.453 63 44.898 105 21.82 42-23.08 63-96.292 105-137.217 42-40.925 63-61.937 105-67.41 42-5.472 63 11.75 105 40.046 42 28.298 63 99.994 105 101.44 42 1.447 63-42.021 105-94.206 42-52.186 63-157.077 105-166.72s63 95.913 105 118.505 63 33.922 105-5.545c42-39.466 63-148.81 105-191.787 42-42.977 84-18.477 105-23.096" fill="none" stroke="#444cf7" stroke-width="4"/><g fill="#444cf7"><circle cy="997.333" r="8"/><circle cx="105" cy="967.84" r="8"/><circle cx="210" cy="904.31" r="8"/><circle cx="315" cy="868.147" r="8"/><circle cx="420" cy="801.101" r="8"/><circle cx="525" cy="781.716" r="8"/><circle cx="630" cy="777.512" r="8"/><circle cx="735" cy="727.615" r="8"/><circle cx="840" cy="638.535" r="8"/><circle cx="945" cy="660.354" r="8"/><circle cx="1050" cy="523.138" r="8"/><circle cx="1155" cy="455.728" r="8"/><circle cx="1260" cy="495.774" r="8"/><circle cx="1365" cy="597.215" r="8"/><circle cx="1470" cy="503.008" r="8"/><circle cx="1575" cy="336.288" r="8"/><circle cx="1680" cy="454.793" r="8"/><circle cx="1785" cy="449.248" r="8"/><circle cx="1890" cy="257.461" r="8"/><circle cx="1995" cy="234.365" r="8"/></g></svg>