<?xml version="1.0" encoding="UTF-8"?>
<svg id="a" data-name="Layer 1" xmlns="http://www.w3.org/2000/svg" viewBox="0 0 484.05 201.39">
  <defs>
    <style>
      .b {
        fill: #f2f2f2;
        stroke-width: 0px;
      }
    </style>
  </defs>
  <g>
    <path class="b" d="M69.89,149.86h-16.61c-.3-2.15-.92-4.06-1.86-5.74-.94-1.68-2.14-3.12-3.6-4.3-1.47-1.19-3.15-2.1-5.06-2.73-1.91-.63-3.98-.95-6.2-.95-4.02,0-7.52.99-10.5,2.98-2.98,1.98-5.3,4.87-6.94,8.65-1.64,3.78-2.46,8.36-2.46,13.75s.83,10.19,2.48,13.96c1.66,3.77,3.98,6.61,6.96,8.53,2.98,1.92,6.43,2.88,10.35,2.88,2.2,0,4.24-.29,6.12-.87,1.88-.58,3.56-1.43,5.02-2.56s2.69-2.5,3.66-4.11c.97-1.62,1.65-3.46,2.03-5.54l16.61.08c-.43,3.57-1.5,7-3.2,10.3s-3.99,6.24-6.86,8.84c-2.87,2.59-6.28,4.64-10.24,6.14-3.96,1.5-8.42,2.26-13.41,2.26-6.93,0-13.11-1.57-18.56-4.7-5.45-3.13-9.75-7.67-12.89-13.61-3.15-5.94-4.72-13.13-4.72-21.58s1.59-15.67,4.78-21.62c3.19-5.94,7.51-10.47,12.97-13.59,5.46-3.12,11.6-4.68,18.43-4.68,4.5,0,8.68.63,12.53,1.9,3.85,1.26,7.27,3.1,10.26,5.52,2.98,2.41,5.42,5.37,7.3,8.85,1.88,3.49,3.09,7.48,3.62,11.98Z"/>
    <path class="b" d="M144.73,161.5c0,8.47-1.6,15.67-4.8,21.62-3.2,5.94-7.55,10.47-13.05,13.59-5.5,3.12-11.67,4.68-18.52,4.68s-13.1-1.57-18.58-4.7c-5.49-3.13-9.82-7.67-13.01-13.61-3.19-5.94-4.78-13.13-4.78-21.58s1.59-15.67,4.78-21.62c3.19-5.94,7.52-10.47,13.01-13.59,5.49-3.12,11.68-4.68,18.58-4.68s13.03,1.56,18.52,4.68c5.5,3.12,9.85,7.65,13.05,13.59,3.2,5.94,4.8,13.15,4.8,21.62ZM128.08,161.5c0-5.49-.82-10.11-2.45-13.88-1.63-3.77-3.92-6.62-6.88-8.57-2.96-1.95-6.42-2.92-10.39-2.92s-7.43.97-10.39,2.92c-2.96,1.95-5.25,4.8-6.88,8.57-1.63,3.77-2.45,8.39-2.45,13.88s.82,10.11,2.45,13.88c1.63,3.77,3.92,6.62,6.88,8.57,2.96,1.95,6.42,2.92,10.39,2.92s7.43-.97,10.39-2.92c2.96-1.95,5.25-4.8,6.88-8.57,1.63-3.77,2.45-8.39,2.45-13.88Z"/>
    <path class="b" d="M149.32,200.33v-77.66h30.64c5.87,0,10.88,1.04,15.04,3.13,4.16,2.09,7.33,5.03,9.52,8.84,2.19,3.81,3.28,8.27,3.28,13.41s-1.11,9.59-3.34,13.29c-2.23,3.7-5.44,6.54-9.65,8.51s-9.3,2.96-15.26,2.96h-20.51v-13.2h17.86c3.13,0,5.74-.43,7.81-1.29,2.07-.86,3.62-2.15,4.65-3.87,1.02-1.72,1.54-3.85,1.54-6.41s-.51-4.75-1.54-6.52c-1.02-1.77-2.58-3.12-4.66-4.04-2.09-.92-4.71-1.38-7.87-1.38h-11.07v64.24h-16.42ZM191.26,164.99l19.3,35.34h-18.13l-18.88-35.34h17.71Z"/>
    <path class="b" d="M212.13,200.33v-77.66h52.33v13.54h-35.91v18.51h33.22v13.54h-33.22v18.54h36.06v13.54h-52.48Z"/>
  </g>
  <g>
    <path class="b" d="M8.32,0l27.18,76.67h.76L63.46,0h8.32l-31.64,86.99h-8.49L0,0h8.32Z"/>
    <path class="b" d="M78.16,86.99V0h50.46v7.14h-42.52v32.75h39.84v7.14h-39.84v32.83h43.37v7.14h-51.31Z"/>
    <path class="b" d="M213.89,7.14V0h63.07v7.14h-27.57v79.85h-7.94V7.14h-27.57Z"/>
    <path class="b" d="M342.76,0h7.94v57.59c0,5.92-1.39,11.21-4.16,15.86-2.78,4.66-6.63,8.33-11.57,11-4.94,2.68-10.68,4.01-17.22,4.01s-12.25-1.35-17.2-4.04c-4.96-2.69-8.82-6.36-11.6-11-2.77-4.64-4.16-9.92-4.16-15.84V0h7.94v57.04c0,4.62,1.03,8.73,3.1,12.34,2.07,3.61,4.98,6.45,8.73,8.52,3.75,2.07,8.15,3.1,13.19,3.1s9.44-1.03,13.21-3.1c3.77-2.07,6.68-4.91,8.73-8.52,2.05-3.61,3.08-7.72,3.08-12.34V0Z"/>
    <path class="b" d="M365.4,86.99V0h28.08c6.17,0,11.33,1.11,15.48,3.33,4.15,2.22,7.28,5.3,9.39,9.22,2.11,3.92,3.16,8.42,3.16,13.49s-1.06,9.54-3.16,13.42c-2.11,3.88-5.23,6.91-9.37,9.09-4.13,2.18-9.26,3.27-15.38,3.27h-23.91v-7.26h23.7c4.53,0,8.3-.75,11.32-2.25,3.02-1.5,5.27-3.64,6.75-6.41,1.49-2.78,2.23-6.06,2.23-9.85s-.75-7.11-2.25-9.96c-1.5-2.85-3.76-5.05-6.77-6.6-3.02-1.56-6.82-2.34-11.4-2.34h-19.92v79.85h-7.94ZM403.75,47.74l21.41,39.25h-9.17l-21.19-39.25h8.96Z"/>
    <path class="b" d="M432.74,86.99V0h50.46v7.14h-42.52v32.75h39.84v7.14h-39.84v32.83h43.37v7.14h-51.31Z"/>
    <g>
      <polygon class="b" points="138.32 14 138.32 86.99 146.26 86.99 146.26 25.26 138.32 14"/>
      <polygon class="b" points="198.25 0 198.25 72.93 197.57 72.93 146.01 0 138.32 0 138.32 1.69 198.51 86.99 206.07 86.99 206.07 0 198.25 0"/>
    </g>
  </g>
</svg>